<svg id="visual" viewBox="0 0 900 600" width="900" height="600" xmlns="http://www.w3.org/2000/svg" xmlns:xlink="http://www.w3.org/1999/xlink" version="1.1"><rect x="0" y="0" width="900" height="600" fill="#fafafa"></rect><defs><linearGradient id="grad1_0" x1="33.3%" y1="0%" x2="100%" y2="100%"><stop offset="20%" stop-color="#fafafa" stop-opacity="1"></stop><stop offset="80%" stop-color="#fafafa" stop-opacity="1"></stop></linearGradient></defs><defs><linearGradient id="grad2_0" x1="0%" y1="0%" x2="66.7%" y2="100%"><stop offset="20%" stop-color="#fafafa" stop-opacity="1"></stop><stop offset="80%" stop-color="#fafafa" stop-opacity="1"></stop></linearGradient></defs><g transform="translate(900, 0)"><path d="M0 432.7C-93.5 431.6 -186.9 430.6 -216.3 374.7C-245.7 318.8 -211 208.1 -236.4 136.5C-261.8 64.9 -347.2 32.5 -432.7 0L0 0Z" fill="#ffbd59"></path></g><g transform="translate(0, 600)"><path d="M0 -432.7C47.1 -372.6 94.2 -312.6 164 -284.1C233.8 -255.5 326.1 -258.4 374.7 -216.3C423.3 -174.2 428 -87.1 432.7 0L0 0Z" fill="#ffbd59"></path></g></svg>