<svg id="visual" viewBox="0 0 900 600" width="900" height="600" xmlns="http://www.w3.org/2000/svg" xmlns:xlink="http://www.w3.org/1999/xlink" version="1.1"><rect x="0" y="0" width="900" height="600" fill="#fafafa"></rect><defs><linearGradient id="grad1_0" x1="33.3%" y1="0%" x2="100%" y2="100%"><stop offset="20%" stop-color="#fafafa" stop-opacity="1"></stop><stop offset="80%" stop-color="#fafafa" stop-opacity="1"></stop></linearGradient></defs><defs><linearGradient id="grad2_0" x1="0%" y1="0%" x2="66.7%" y2="100%"><stop offset="20%" stop-color="#fafafa" stop-opacity="1"></stop><stop offset="80%" stop-color="#fafafa" stop-opacity="1"></stop></linearGradient></defs><g transform="translate(900, 0)"><path d="M0 459.7C-94.6 455.9 -189.2 452 -229.9 398.1C-270.5 344.2 -257.3 240.2 -286.7 165.5C-316 90.8 -387.8 45.4 -459.7 0L0 0Z" fill="#ffbd59"></path></g><g transform="translate(0, 600)"><path d="M0 -459.7C52.9 -400.8 105.7 -341.8 179.5 -310.9C253.3 -280 347.9 -277 398.1 -229.9C448.3 -182.7 454 -91.4 459.7 0L0 0Z" fill="#ffbd59"></path></g></svg>